<svg xmlns="http://www.w3.org/2000/svg" width="512" height="512"><path d="M231.5 9.65c-45.608 4.919-88.033 21.711-125.412 49.638-12.329 9.212-37.588 34.471-46.8 46.8C34.466 139.31 18.887 175.319 11.736 216c-1.907 10.847-2.197 16.136-2.197 40s.29 29.153 2.197 40c7.151 40.681 22.73 76.69 47.552 109.912 9.212 12.329 34.471 37.588 46.8 46.8 33.23 24.828 69.307 40.433 109.912 47.543 10.826 1.896 16.183 2.189 40 2.189s29.174-.293 40-2.189c40.605-7.11 76.682-22.715 109.912-47.543 12.329-9.212 37.588-34.471 46.8-46.8 24.828-33.23 40.433-69.307 47.543-109.912 1.896-10.826 2.189-16.183 2.189-40s-.293-29.174-2.189-40c-7.11-40.605-22.715-76.682-47.543-109.912-9.212-12.329-34.471-37.588-46.8-46.8C372.815 34.56 336.361 18.757 296.5 11.859c-9.455-1.636-17.197-2.136-36.5-2.358-13.475-.155-26.3-.088-28.5.149m8.989 50.69c-11.091 4.124-20.066 11.955-25.819 22.525-2.879 5.289-5.623 16.068-5.653 22.202l-.017 3.568-6.792-3.372c-9.004-4.469-18.133-6.025-26.723-4.553-15.313 2.623-29.129 12.979-36.079 27.046-3.416 6.913-3.79 8.492-4.201 17.737-.845 18.994 5.325 31.212 20.938 41.463l5.643 3.705-5.268 3.151c-7.405 4.429-15.855 13.889-18.671 20.903-1.995 4.969-2.324 7.549-2.334 18.285-.01 12.151.083 12.691 3.33 19.335 11.995 24.543 41.34 34.499 65.407 22.19l4.75-2.429v3.268c0 17.749 11.194 35.097 27.688 42.909 6.545 3.1 7.302 3.227 19.312 3.227 12.001 0 12.771-.128 19.288-3.215 8.086-3.83 17.513-12.446 21.782-19.908 3.074-5.373 5.881-16.035 5.913-22.457l.017-3.579 5.927 2.938c15.918 7.89 37.467 5.199 51.465-6.426 6.07-5.042 12.37-14.344 14.597-21.554 3.927-12.713 2.114-28.866-4.39-39.128-3.025-4.772-10.971-12.138-16.346-15.154l-4.248-2.382 5.748-3.691c15.615-10.03 21.89-22.389 21.042-41.451-.411-9.245-.785-10.824-4.201-17.737-7.985-16.161-25.819-27.788-42.554-27.744-6.085.016-14.292 2.284-21.29 5.885l-5.75 2.958-.017-3.677c-.03-6.259-2.758-16.994-5.687-22.377-5.858-10.767-15.384-18.875-26.783-22.797-8.287-2.851-21.864-2.699-30.024.336m0 85c-31.701 11.789-41.806 52.386-19.049 76.529C231.866 232.93 241.162 237 256 237c14.838 0 24.134-4.07 34.56-15.131 23.053-24.457 12.286-65.74-20.047-76.865-8.287-2.851-21.864-2.699-30.024.336M86.361 295.902c2.519 41.468 18.647 77.261 48.414 107.445 34.349 34.832 72.568 50.869 121.225 50.869 28.884 0 51.977-5.158 75.35-16.829 36.972-18.462 69.539-54.196 83.742-91.888 6.372-16.908 10.876-39.803 10.9-55.4l.008-5.401-12.75.618c-29.658 1.436-59.551 11.88-84.25 29.433-12.309 8.747-33.696 30.118-42.284 42.251-7.086 10.01-18.207 31.381-21.596 41.5-4.257 12.71-8.12 31.711-8.12 39.942 0 1.957-.45 3.558-1 3.558s-1-1.601-1-3.558c0-8.231-3.863-27.232-8.12-39.942-3.389-10.119-14.51-31.49-21.596-41.5-8.588-12.133-29.975-33.504-42.284-42.251-24.753-17.592-54.587-27.997-84.41-29.44l-12.91-.625.681 11.218" fill="undefined" fill-rule="evenodd"/></svg>